# xmcd CD database file
#
# Track frame offsets:
#	150
#	23805
#	55822
#
# Disc length: 1292 seconds
#
# Revision: 0
# Processed by: cddbd v1.5.1PL2 Copyright (c) Steve Scherf et al.
# Submitted via: CD2WAV32(JP) R3.22
#
DISCID=1c050a03
DTITLE=Salyu - Dialogue
DYEAR=2004
DGENRE=Blues
TTITLE0=Dialogue
TTITLE1=光りの束
TTITLE2=DATA
EXTD=
EXTT0=
EXTT1=
EXTT2=
PLAYORDER=
